<svg xmlns="http://www.w3.org/2000/svg" width="1024" height="1024" viewBox="0 0 1024 1024">
  <path fill="#FFFFFF" d="M238 278c-22-18-55-15-73 7-18 22-15 55 7 73l190 154-190 154c-22 18-25 51-7 73 18 22 51 25 73 7l240-194c12-10 19-24 19-40s-7-30-19-40L238 278Z"/>
  <path fill="#FFFFFF" d="M486 716c0-29 23-52 52-52h276c29 0 52 23 52 52s-23 52-52 52H538c-29 0-52-23-52-52Z"/>
  <path fill="#FFFFFF" d="M742 218c8-24 42-24 50 0l12 36c3 8 9 14 17 17l36 12c24 8 24 42 0 50l-36 12c-8 3-14 9-17 17l-12 36c-8 24-42 24-50 0l-12-36c-3-8-9-14-17-17l-36-12c-24-8-24-42 0-50l36-12c8-3 14-9 17-17l12-36Z"/>
</svg>
