<svg xmlns="http://www.w3.org/2000/svg" width="1024" height="1024" viewBox="0 0 1024 1024">
  <defs>
    <linearGradient id="background" x1="512" y1="96" x2="512" y2="928" gradientUnits="userSpaceOnUse">
      <stop offset="0" stop-color="#47ADFF"/>
      <stop offset="0.55" stop-color="#078CFA"/>
      <stop offset="1" stop-color="#0075DD"/>
    </linearGradient>
    <linearGradient id="highlight" x1="512" y1="96" x2="512" y2="928" gradientUnits="userSpaceOnUse">
      <stop stop-color="#FFFFFF" stop-opacity=".36"/>
      <stop offset=".28" stop-color="#FFFFFF" stop-opacity=".06"/>
      <stop offset="1" stop-color="#FFFFFF" stop-opacity="0"/>
    </linearGradient>
    <filter id="shadow" x="-20%" y="-20%" width="140%" height="150%">
      <feDropShadow dx="0" dy="22" stdDeviation="24" flood-color="#003A70" flood-opacity=".3"/>
    </filter>
    <filter id="mark-shadow" x="-20%" y="-20%" width="140%" height="140%">
      <feDropShadow dx="0" dy="8" stdDeviation="8" flood-color="#005FAF" flood-opacity=".38"/>
    </filter>
    <clipPath id="tile">
      <rect x="96" y="96" width="832" height="832" rx="210"/>
    </clipPath>
  </defs>

  <g filter="url(#shadow)">
    <rect x="96" y="96" width="832" height="832" rx="210" fill="url(#background)"/>
    <rect x="98" y="98" width="828" height="828" rx="208" fill="none" stroke="#FFFFFF" stroke-opacity=".28" stroke-width="4"/>
    <path d="M96 96h832v520C712 530 312 530 96 616V96Z" fill="url(#highlight)" clip-path="url(#tile)"/>
  </g>

  <g fill="#FFFFFF" filter="url(#mark-shadow)">
    <path d="M286 322c-22-18-55-15-73 7-18 22-15 55 7 73l190 154-190 154c-22 18-25 51-7 73 18 22 51 25 73 7l240-194c12-10 19-24 19-40s-7-30-19-40L286 322Z"/>
    <path d="M534 760c0-29 23-52 52-52h228c29 0 52 23 52 52s-23 52-52 52H586c-29 0-52-23-52-52Z"/>
    <path d="M742 218c8-24 42-24 50 0l12 36c3 8 9 14 17 17l36 12c24 8 24 42 0 50l-36 12c-8 3-14 9-17 17l-12 36c-8 24-42 24-50 0l-12-36c-3-8-9-14-17-17l-36-12c-24-8-24-42 0-50l36-12c8-3 14-9 17-17l12-36Z"/>
  </g>
</svg>
